<!-- Generated by IcoMoon.io -->
<svg version="1.1" xmlns="http://www.w3.org/2000/svg" width="1479" height="1024" viewBox="0 0 1479 1024">
<title></title>
<g id="icomoon-ignore">
</g>
<path fill="#000" d="M266.519 172.33c-105.993 38.54-144.548 91.545-144.548 200.757 0 81.913 53.003 136.511 168.628 173.453 88.331 28.91 114.028 59.426 97.972 118.843-14.453 61.024-78.692 73.876-138.122 28.91-56.208-40.153-77.088-41.763-125.27-4.816l-36.939 28.91 36.939 33.726c120.454 114.028 273.024 110.818 364.567-4.816l33.726-43.358v117.236h867.257v-112.418h-128.479c-70.669 0-128.479-4.816-128.479-9.631s54.601-122.061 120.454-258.574c65.844-138.122 120.454-253.75 120.454-255.354 0-3.209-146.142-4.816-324.417-4.816-191.114 1.61-293.898 6.426-247.331 12.853 107.601 16.057 170.237 83.508 170.237 186.294 0 56.208-9.631 83.508-44.967 122.061-40.153 44.967-56.208 51.393-160.606 59.426l-115.639 8.034v236.088h-112.418l-1.61-317.99c-1.61-173.453-6.426-300.322-9.631-281.060-8.034 44.967-20.873 46.577-72.265 4.816-41.763-32.114-147.753-53.003-189.515-38.54zM390.182 307.232l59.426 32.114 36.939-35.336 36.939-33.726v264.993l-49.782-41.763c-27.3-22.483-69.062-46.577-91.545-51.393-64.246-16.057-126.881-49.782-136.511-75.486-11.243-28.91 30.52-91.545 62.636-91.545 12.853 0 49.782 14.453 81.913 32.114z"></path>
</svg>
