<?xml version="1.0" encoding="utf-8"?>
<!-- Generator: Adobe Illustrator 21.1.0, SVG Export Plug-In . SVG Version: 6.00 Build 0)  -->
<svg version="1.1" id="Layer_1" xmlns="http://www.w3.org/2000/svg" xmlns:xlink="http://www.w3.org/1999/xlink" x="0px" y="0px"
	 viewBox="0 0 80 80" style="enable-background:new 0 0 80 80;" xml:space="preserve">
<style type="text/css">
	.st0{fill:none;stroke:#425EA8;stroke-width:2;stroke-miterlimit:10;}
	.st1{opacity:0.8;}
	.st2{fill:#425EA8;}
	.st3{display:none;}
	.st4{display:inline;fill:none;stroke:#425EA8;stroke-width:2;stroke-miterlimit:10;}
	.st5{display:inline;fill:none;stroke:#425EA8;stroke-width:2;stroke-linecap:round;stroke-linejoin:round;stroke-miterlimit:10;}
	.st6{display:inline;opacity:0.8;}
	.st7{display:inline;fill:none;}
	.st8{display:inline;}
	.st9{fill:none;stroke:#29424C;stroke-width:2;stroke-linecap:round;stroke-miterlimit:10;}
	.st10{fill:none;stroke:#29424C;stroke-width:2;stroke-miterlimit:10;}
</style>
<g id="Layer_1_1_">
	<path class="st0" d="M43.1,3.9l30.3,22.7c1.2,0.9,1.9,2.3,1.9,3.8v41.9c0,2.6-2.1,4.7-4.7,4.7H10.1c-2.6,0-4.7-2.1-4.7-4.7V30.4
		c0-1.5,0.7-2.9,1.9-3.8L37.4,3.9C39.1,2.7,41.4,2.7,43.1,3.9z"/>
	<g class="st1">
		<path id="XMLID_130_" class="st2" d="M56.2,45.9c0.8-0.1,1.1-0.2,1.5-0.3c0.5-0.2,0.9-0.6,0.9-1.2c0-0.6-0.4-1.1-0.9-1.2
			c-0.4-0.1-1.1,0-1.5,0L42,44.6c-1.2,0.1-2.4,0.1-3.6,0l-14.2-1.4c-0.5,0-1.1-0.2-1.5,0c-0.5,0.2-0.9,0.7-0.9,1.2
			c0,0.6,0.4,1.1,0.9,1.2c0.4,0.1,0.7,0.2,1.5,0.3l13.5,2.2c1.6,0.3,3.3,0.3,4.9,0L56.2,45.9z"/>
		<path id="XMLID_129_" class="st2" d="M53.7,39.4c0.5,0,1.1-0.1,1.5-0.2c0.5-0.2,0.9-0.7,0.9-1.2s-0.4-1.1-0.9-1.2
			c-0.4-0.1-1.1-0.1-1.5-0.1h-27c-0.5,0-1.1,0-1.5,0.1c-0.5,0.2-0.9,0.7-0.9,1.2s0.4,1.1,0.9,1.2c0.4,0.1,1.1,0.2,1.5,0.2l12,0.9
			c1,0.1,2,0.1,3,0L53.7,39.4z"/>
		<path id="XMLID_128_" class="st2" d="M44.5,29c-2.8-0.3-5.6-0.3-8.5,0l-4.2,0.5c-0.5,0-1.1,0.1-1.5,0.2s-0.9,0.5-0.9,1.2
			c0,0.6,0.4,1.1,0.9,1.2c0.4,0.1,1.1,0.1,1.5,0.1h16.9c0.5,0,1.1,0,1.5-0.1c0.5-0.2,0.9-0.6,0.9-1.2c0-0.7-0.5-1.1-0.9-1.2
			s-1.1-0.2-1.5-0.2L44.5,29z"/>
		<path id="XMLID_127_" class="st2" d="M37.4,55.9c1.8,0.5,3.7,0.5,5.6,0l12.3-3c0.8-0.2,1.1-0.3,1.5-0.4c0.5-0.2,0.9-0.6,0.9-1.2
			c0-0.6-0.4-1.1-0.9-1.2c-0.4-0.1-1.1,0-1.5,0.1L42,52.5c-1.2,0.2-2.4,0.2-3.6,0l-13.3-2.4C24.6,50,24,49.9,23.6,50
			c-0.5,0.2-0.9,0.7-0.9,1.2c0,0.6,0.4,1.1,0.9,1.2c0.4,0.1,0.7,0.2,1.5,0.4L37.4,55.9z"/>
		<path id="XMLID_126_" class="st2" d="M51.7,60.8c0.8-0.3,1.1-0.4,1.5-0.6c0.5-0.2,0.9-0.6,0.9-1.3c0-0.6-0.4-1.1-0.9-1.2
			c-0.5-0.1-1.1,0.1-1.5,0.2l-8.3,2.2c-2,0.6-4.2,0.5-6.2,0l-8.3-2.2c-0.4-0.1-1-0.3-1.5-0.2c-0.5,0.2-0.9,0.7-0.9,1.2
			c0,0.7,0.4,1,0.9,1.3c0.4,0.2,0.7,0.3,1.5,0.6l7.9,2.7c2.3,0.8,4.8,0.8,7.1,0L51.7,60.8z"/>
	</g>
</g>
<g id="Layer_2" class="st3">
	<path class="st4" d="M5.1,55.6c0,0,10.4,1.6,14.9,0.6c2.6-1,7.9-2.5,16.4,0.7c2.7,0.9,5.5,1.5,8.3,1.7c0,0,2.8,0.2,6.8,0.5
		s4.2,7-0.3,7"/>
	<path class="st4" d="M40,66.1c4.1,1.1,11.4,0,11.4,0s2.6-0.5,3.8-1.2c0,0,9.9-5.9,14.9-9c1.3-0.8,2.9-0.6,3.9,0.5l0.1,0.1
		c1.2,1.2,1.1,3.2-0.1,4.4c-0.1,0.1-0.2,0.2-0.4,0.3l-16,11.3c-2.7,1.9-5.9,2.9-9.3,2.9c-0.3,0-0.6,0-1,0c0,0-23.7-1-26.7-2.7
		C18.5,72.5,9.7,73.5,5,75.4"/>
	<path class="st4" d="M55.6,27c0,6.7-5.4,12.1-12.1,12.1s-12-5.4-12-12.1s5.3-12,12-12S55.6,20.3,55.6,27z"/>
	<path class="st5" d="M65.7,28.2V26c0-1-0.7-1.8-1.6-2l-3.7-0.7c-0.7-0.1-1.3-0.7-1.5-1.4c-0.3-0.8-0.6-1.5-0.9-2.2
		c-0.3-0.7-0.2-1.5,0.2-2.1l2.1-3c0.6-0.8,0.5-1.9-0.2-2.6l-1.6-1.6c-0.7-0.7-1.8-0.8-2.6-0.2l-3,2.2c-0.6,0.4-1.4,0.5-2.1,0.2
		c-0.7-0.4-1.4-0.7-2.2-0.9c-0.7-0.2-1.2-0.8-1.4-1.5l-0.7-3.8c-0.2-0.9-1-1.6-2-1.6h-0.9h-0.1h-0.9c-1,0-1.8,0.7-2,1.6l-0.7,3.8
		c-0.1,0.7-0.7,1.3-1.4,1.5c-0.8,0.3-1.5,0.6-2.2,0.9c-0.7,0.3-1.5,0.2-2.1-0.2l-3-2.2c-0.8-0.6-1.9-0.5-2.6,0.2L27,12.1
		c-0.7,0.7-0.8,1.8-0.2,2.6l2.1,3c0.4,0.6,0.5,1.4,0.2,2.1c-0.4,0.7-0.7,1.4-0.9,2.2c-0.2,0.7-0.8,1.3-1.5,1.4L22.9,24
		c-0.9,0.2-1.6,1-1.6,2v2.2c0,1,0.7,1.8,1.7,2l3.7,0.6c0.7,0.1,1.3,0.7,1.6,1.4c0.3,0.8,0.6,1.5,0.9,2.2c0.3,0.6,0.3,1.4-0.1,2
		l-2.2,3.1c-0.6,0.8-0.5,1.9,0.2,2.6l1.5,1.5c0.7,0.7,1.8,0.8,2.6,0.2l2.9-2.1c0.6-0.4,1.4-0.5,2-0.1c0.7,0.4,1.4,0.7,2.2,0.9
		c0.7,0.2,1.3,0.8,1.4,1.6l0.6,3.6c0.2,1,1,1.7,2,1.7h1.1h0.1h1.1c1,0,1.8-0.7,2-1.7l0.6-3.6c0.1-0.7,0.7-1.3,1.4-1.6
		c0.8-0.3,1.5-0.6,2.2-0.9c0.7-0.3,1.4-0.3,2,0.1l2.9,2.1c0.8,0.6,1.9,0.5,2.6-0.2l1.5-1.5c0.7-0.7,0.8-1.8,0.2-2.6l-2.2-3.1
		c-0.4-0.6-0.4-1.3-0.1-2c0.4-0.7,0.7-1.5,0.9-2.2s0.8-1.3,1.6-1.4l3.7-0.6C64.9,30,65.7,29.2,65.7,28.2z"/>
	<circle class="st4" cx="43.3" cy="26.9" r="3.7"/>
</g>
<g id="Layer_3" class="st3">
	<g class="st6">
		<path id="XMLID_125_" class="st2" d="M50,45.7c0.7-0.1,1-0.2,1.4-0.3c0.5-0.2,0.9-0.6,0.9-1.2c0-0.5-0.4-1-0.9-1.2
			c-0.4-0.1-1,0-1.4,0l-13.4,1.3c-1.1,0.1-2.3,0.1-3.4,0L19.9,43c-0.4,0-1-0.1-1.4,0c-0.5,0.2-0.9,0.6-0.9,1.2c0,0.6,0.4,1,0.9,1.2
			c0.4,0.1,0.7,0.2,1.4,0.3l12.8,2.1c1.5,0.2,3.1,0.2,4.6,0L50,45.7z"/>
		<path id="XMLID_124_" class="st2" d="M47.6,39.6c0.4,0,1-0.1,1.4-0.2c0.5-0.2,0.9-0.6,0.9-1.2c0-0.5-0.4-1-0.9-1.2
			c-0.4-0.1-1-0.1-1.4-0.1H22.2c-0.4,0-1,0-1.4,0.1c-0.5,0.2-0.9,0.6-0.9,1.2c0,0.5,0.4,1,0.9,1.2c0.4,0.1,1,0.1,1.4,0.2l11.3,0.8
			c0.9,0.1,1.9,0.1,2.8,0L47.6,39.6z"/>
		<path id="XMLID_123_" class="st2" d="M38.9,29.8c-2.7-0.3-5.3-0.3-8,0l-4,0.5c-0.4,0-1,0.1-1.4,0.2s-0.9,0.5-0.9,1.2
			c0,0.6,0.4,1,0.9,1.2c0.4,0.1,1,0.1,1.4,0.1h15.9c0.4,0,1,0,1.4-0.1c0.5-0.2,0.9-0.6,0.9-1.2c0-0.7-0.5-1-0.9-1.2
			c-0.4-0.1-1-0.2-1.4-0.2L38.9,29.8z"/>
		<path id="XMLID_122_" class="st2" d="M32.3,55.1c1.7,0.4,3.5,0.4,5.3,0l11.6-2.8c0.7-0.2,1-0.2,1.4-0.4c0.5-0.2,0.9-0.6,0.9-1.2
			c0-0.5-0.4-1-0.9-1.2c-0.4-0.1-1,0-1.4,0.1l-12.5,2.2c-1.1,0.2-2.3,0.2-3.4,0l-12.5-2.2c-0.4-0.1-1-0.2-1.4-0.1
			c-0.5,0.2-0.9,0.6-0.9,1.2c0,0.6,0.4,1,0.9,1.2c0.4,0.1,0.7,0.2,1.4,0.4L32.3,55.1z"/>
		<path id="XMLID_121_" class="st2" d="M45.7,59.8c0.8-0.3,1.1-0.4,1.4-0.5c0.5-0.2,0.9-0.6,0.9-1.2c0-0.5-0.4-1-0.9-1.2
			c-0.5-0.1-1,0.1-1.4,0.2l-7.8,2.1c-1.9,0.5-3.9,0.5-5.9,0l-7.8-2.1c-0.4-0.1-1-0.3-1.4-0.2c-0.5,0.2-0.9,0.6-0.9,1.2
			c0,0.6,0.4,1,0.9,1.2c0.4,0.2,0.6,0.3,1.4,0.5l7.4,2.6c2.2,0.8,4.5,0.8,6.7,0L45.7,59.8z"/>
	</g>
	<path class="st4" d="M61.9,28.9c6.7,0,12.1-5.4,12.1-12.1S68.6,4.7,61.9,4.7s-12.1,5.4-12.1,12.1"/>
	<g class="st6">
		<path class="st2" d="M61.9,19.2l-2.5,3.9c-0.6,0.9-1.2,0.9-2,0.3s-0.9-1.2-0.4-1.9l2.7-3.7l-4.2-0.7c-1.1-0.2-1.2-0.9-1-1.9
			c0.2-0.9,0.8-1.3,1.7-1l4.3,1.2l-0.1-4.3c0-1.1,0.6-1.3,1.5-1.3s1.5,0.3,1.5,1.3l-0.1,4.3l4.3-1.2c0.9-0.3,1.5,0.1,1.7,1
			c0.2,1,0.1,1.6-1,1.9l-4.2,0.7l2.7,3.7c0.5,0.7,0.4,1.4-0.4,1.9s-1.4,0.6-2-0.3L61.9,19.2z"/>
	</g>
	<path class="st4" d="M54.8,26.5c-1.6-1.1-2.8-2.7-3.7-4.4c-0.8-1.6-1.2-3.4-1.2-5.3H16.7C10.8,16.8,6,21.6,6,27.5v34.6
		c0,5.9,4.8,10.7,10.7,10.7h34.6C57.2,72.8,62,68,62,62.1V28.9C59.2,28.9,56.8,28,54.8,26.5z"/>
	<path class="st7" d="M66.3,71.7h-47c-5.3,0-9.7-4.4-9.7-9.7V15c0-5.3,4.4-9.7,9.7-9.7h47c5.3,0,9.7,4.4,9.7,9.7v47
		C76,67.3,71.6,71.7,66.3,71.7z"/>
</g>
<g id="Layer_4" class="st3">
	<g class="st8">
		<circle class="st0" cx="61.6" cy="60.3" r="13.4"/>
		<circle class="st0" cx="18.4" cy="60.3" r="13.4"/>
		<circle class="st0" cx="39.3" cy="21.3" r="13.4"/>
		<line class="st0" x1="31.4" y1="32.2" x2="22.5" y2="47.8"/>
		<path class="st0" d="M48.4,61.2H31.9H48.4z"/>
	</g>
</g>
<g id="Layer_5" class="st3">
	<path class="st4" d="M58,32.2L58,32.2c-3.5,3.6-8.9,4.3-13.1,2.1C49.1,36.5,54.4,35.8,58,32.2L58,32.2C55.7,34.4,55.7,34.4,58,32.2
		z"/>
	<path class="st4" d="M33,63.2c-3.9,3.1-6.9,0.4-5-3l0,0l5.4-5.4l3.3-3.4c1.1-1.1,2.9-1.1,4,0s1.1,2.9,0,4l-3.3,3.4
		C37.3,58.8,34.3,61.8,33,63.2z"/>
	<path class="st4" d="M22.6,57.5c-3.9,0.9-4.8-2.7-3.2-4.9c1.1-1.1,1.8-1.8,1.8-1.8l4-4c1.1-1.1,2.9-1.1,4,0s1.1,2.9,0,4l-4,4
		L22.6,57.5z"/>
	<path class="st4" d="M37.3,66.9c-2.5,1.4-5.6-0.3-4-4l0,0l1.3-1.3l4-4c1.1-1.1,2.9-1.1,4,0s1.1,2.9,0,4l-4,4
		C38.7,65.5,38.1,66.1,37.3,66.9z"/>
	<path class="st4" d="M27.4,60.6c-3.8,2.5-5.5-1.1-4.8-3.3l0,0l5.3-5.3l4-4c1.1-1.1,2.9-1.1,4,0s1.1,2.9,0,4l-4,4L27.4,60.6z"/>
	<path class="st4" d="M58.5,49.6C55.1,46.3,44.4,32,36.4,27.4l0,0l-2.7,2.8l-2.3,5.6l0,0"/>
	<path class="st4" d="M31.7,22.2l-3.3,3.5c-2.2,3.3-2.7,8.7-2.7,8.7c-0.2,0.5-1.2,3.3-0.6,3.9c1.2,1.1,5.2-0.1,6.2-2.6l0,0l2.3-5.6
		l2.7-2.8l0,0"/>
	<path class="st4" d="M17.3,15.1c4.8,3.8,14.3,7.1,14.3,7.1l2.2-2.1c0.7-0.7,2.6-0.1,3.6-0.1c0,0,16.4,0.9,18.5,0c2.1-0.9,4-4,4-4"
		/>
	<path class="st4" d="M74,30c-5,2.1-10.7,10.8-10.7,10.8s-2.1,4.6-3.4,6.8c-0.4,0.7-0.9,1.4-1.3,2.1c0,0,1.4,1.4,2.4,2.4
		c0.6,2.2-0.9,4.3-4,4l-16-16l0,0l15.9,16c1.1,2.2-1.2,4.9-4.7,3.3C50.8,58.3,37,44.2,37,44.2l0,0c0,0,12.8,13,14.6,14.6
		c1.5,2.5,0.4,5.5-4.6,2.7l-3.5-2.8l0,0"/>
	<path class="st4" d="M22.1,49.9c-0.5-0.7-1.1-1.5-1.6-2.3c-1.7-2.5-3.1-5.2-4.3-8.1c0,0-7.8-8.8-10.3-10.1"/>
</g>
<g id="Layer_6" class="st3">
	<path class="st4" d="M70.9,74.5H8c-1.7,0-3.1-1.4-3.1-3.1V8.5c0-1.7,1.4-3.1,3.1-3.1h62.9c1.7,0,3.1,1.4,3.1,3.1v62.9
		C74,73.1,72.6,74.5,70.9,74.5z"/>
	<line class="st4" x1="39.4" y1="20" x2="39.4" y2="59.9"/>
	<line class="st4" x1="59.4" y1="40" x2="19.5" y2="40"/>
</g>
<g id="CART" class="st3">
	<g id="Layer_2_1_" class="st8">
		<g id="_Blue_29424C">
			<path class="st9" d="M4,13l2.7,0.2c0,0,5.4,0,6.9,6.6l8.8,34.8c0,0,1.2,5,5.4,5h34.1"/>
			<path class="st10" d="M13.9,21.2l56.8,5.6c2.2-0.1,4.1,1.6,4.3,3.8c0,0.4,0,0.9-0.1,1.3l-2.5,10.5c0,0-1.7,8-10,8H21.3"/>
			<circle class="st10" cx="63.6" cy="64.3" r="4.9"/>
			<circle class="st10" cx="24.8" cy="64.3" r="4.9"/>
		</g>
	</g>
</g>
<g id="PROFILE" class="st3">
	<g class="st8">
		<circle class="st10" cx="39.5" cy="19.1" r="13.7"/>
		<path class="st10" d="M63,76V52.5c0-8.6-7-15.6-15.6-15.6H31.7c-8.6,0-15.6,7-15.6,15.6V76"/>
	</g>
	<g class="st8">
		<circle class="st10" cx="39.5" cy="19.1" r="13.7"/>
		<path class="st10" d="M63,76V52.5c0-8.6-7-15.6-15.6-15.6H31.7c-8.6,0-15.6,7-15.6,15.6V76"/>
	</g>
	<g class="st8">
		<circle class="st10" cx="39.5" cy="19.1" r="13.7"/>
		<path class="st10" d="M63,76V52.5c0-8.6-7-15.6-15.6-15.6H31.7c-8.6,0-15.6,7-15.6,15.6V76"/>
	</g>
	<g class="st8">
		<circle class="st10" cx="39.5" cy="19.1" r="13.7"/>
		<path class="st10" d="M63,76V52.5c0-8.6-7-15.6-15.6-15.6H31.7c-8.6,0-15.6,7-15.6,15.6V76"/>
	</g>
</g>
</svg>
