<?xml version="1.0" encoding="utf-8"?>
<!-- Svg Vector Icons : http://www.onlinewebfonts.com/icon -->
<!DOCTYPE svg PUBLIC "-//W3C//DTD SVG 1.1//EN" "http://www.w3.org/Graphics/SVG/1.1/DTD/svg11.dtd">
<svg version="1.1" xmlns="http://www.w3.org/2000/svg" xmlns:xlink="http://www.w3.org/1999/xlink" x="0px" y="0px" viewBox="0 0 1000 1000" enable-background="new 0 0 1000 1000" xml:space="preserve">
<metadata> Svg Vector Icons : http://www.onlinewebfonts.com/icon </metadata>
<g><path d="M500,990C229.4,990,10,770.6,10,500C10,229.4,229.4,10,500,10c270.6,0,490,219.4,490,490C990,770.6,770.6,990,500,990L500,990z M763.3,839.5c-3.6-5.2-20.8-26.2-24.3-31.1c-5.9-8.4-11.9-16.9-17.2-25.3c-0.3-0.4-29.7-39.9-135.8-44.8c-37,0-63.8-27.6-63.9-65.9l-0.7-20c0-2.9-0.4,3.2,0,0v-21.5l21.4-21.4c15.7-7.3,35.7-19.6,51.5-31.6l2.9-2c12.5-8,30-24.6,31.7-31l0.7-8.2c8.1-41.3,20.7-107.4,20.7-133.2C650.5,302.2,601.3,253,500,253c-102.7,0-150.5,47.9-150.5,150.5c0,26.5,12.6,92.2,20.7,133.2l0.7,7.5c1.3,6.7,17.1,22.7,31.2,31.5l2.1,1.3c16.9,11.9,37.2,25.1,52.8,32.5l21.4,21.4v21.5c0.4,2.9,0-3.2,0,0l-0.7,20c0,38.2-26.8,65.9-62,65.9l-4.5,10.5c-112.2,4.6-133.1,34.2-133.1,34.2c-5.4,8.5-11.4,16.9-17.3,25.5c-3.5,4.8-20.7,25.8-24.3,31c72.9,56.6,164,90.5,263.3,90.5C599.3,930.1,690.5,896.1,763.3,839.5L763.3,839.5z M500,70C262.5,70,70,262.5,70,500c0,121.9,50.9,231.7,132.4,309.9c8.6-12.8,17.8-35.1,25.9-47.9c0,0,37.8-62.1,181.1-67.9c14.6,0,21.9-9.5,21.9-24.2v9.6c0-11.8,0-21.2,0-21.2c0-2.9-0.5-5.6-0.7-8.4c-16.4-7.8-35.4-18.4-57.4-33.8c0,0-54.4-33.4-54.4-71c0,0-22.6-106.2-22.6-148.8c0-105.2,44.9-203.8,203.7-203.8c156.7,0,203.7,98.6,203.7,203.8c0,41.6-22.6,148.8-22.6,148.8c0,36.5-54.4,71-54.4,71c-21.5,16.3-40.7,27.2-57.5,34.9c-0.1,2.5-0.6,4.8-0.6,7.3c0,0,0,9.4,0,21.2V670c0,14.6,7.3,24.2,21.9,24.2C736,700.7,771.6,762,771.6,762c8.1,12.8,17.3,35.1,25.9,47.9c81.6-78.3,132.5-188,132.5-309.9C930.1,262.5,737.5,70,500,70L500,70z"/></g>
</svg>