<?xml version="1.0" encoding="UTF-8" standalone="no"?>
<svg width="135px" height="29px" viewBox="0 0 135 29" version="1.1" xmlns="http://www.w3.org/2000/svg" xmlns:xlink="http://www.w3.org/1999/xlink">
    <!-- Generator: Sketch 43.2 (39069) - http://www.bohemiancoding.com/sketch -->
    <title>BG logo</title>
    <desc>Created with Sketch.</desc>
    <defs>
        <polygon id="path-1" points="132.15601 9.24002249 0 9.24002249 0 0.23833658 132.15601 0.23833658"></polygon>
        <path d="M16.0975192,0.182840445 L5.47149332,3.6548489 C5.47149332,3.6548489 3.03576739,4.46657087 1.74776425,5.60085363 C0.90776221,6.2865753 0.347760847,7.21085755 0.109760267,8.26058011 C1.03348252,7.75657888 1.98576483,7.44857813 1.98576483,7.44857813 L10.7352261,4.59257118 C10.7352261,4.59257118 11.071507,11.2425874 7.16549744,14.1685945 C8.2995002,13.9443139 9.61550341,13.4545928 11.1132271,12.6005907 C16.5312402,9.52058318 16.44724,1.20484293 16.41924,0.182840445 L16.0975192,0.182840445 Z" id="path-3"></path>
        <path d="M1.56576381,0.854842081 C0.683761665,1.58284385 0.166040404,2.66056648 0.166040404,3.83628934 C0.166040404,6.03457469 2.12576518,7.82629905 4.53349104,7.82629905 C5.7097739,7.85429912 7.20749755,7.50429827 9.05550204,6.45429571 C9.29378262,6.32857541 9.51778317,6.17457503 9.72750368,6.02057466 C9.11150218,6.14657496 8.55150082,6.18829506 8.03377956,6.17457503 C5.0097722,6.17457503 2.57376627,3.93428958 2.57376627,1.1905629 C2.57376627,0.826562012 2.61576637,0.462561126 2.68576654,0.126560308 C2.27976555,0.322840786 1.87404456,0.574561399 1.56576381,0.854842081 Z" id="path-5"></path>
        <polygon id="path-7" points="0 33.8800825 134.409847 33.8800825 134.409847 0.043120105 0 0.043120105"></polygon>
    </defs>
    <g id="Symbols" stroke="none" stroke-width="1" fill="none" fill-rule="evenodd">
        <g id="DESKTOP-nav" transform="translate(-1071.000000, -32.000000)">
            <g id="BG-logo">
                <g transform="translate(1055.000000, 24.000000)">
                    <g id="Page-1" transform="translate(16.319672, 2.000000)">
                        <g id="Group-6" transform="translate(0.000000, 6.396896)">
                            <g id="Group-3" transform="translate(0.000000, 18.480045)">
                                <mask id="mask-2" fill="white">
                                    <use xlink:href="#path-1"></use>
                                </mask>
                                <g id="Clip-2"></g>
                                <path d="M5.17990061,5.5860696 L2.33789369,5.5860696 L3.76589717,1.94606074 L5.17990061,5.5860696 Z M5.52990146,6.62207212 L6.43990368,8.82007747 C6.53790392,9.04407802 6.73390439,9.17007832 6.95790494,9.17007832 C7.26590569,9.17007832 7.50362627,8.91807771 7.50362627,8.62407699 C7.50362627,8.55407682 7.48990623,8.49807669 7.46162616,8.42807652 L4.26989839,0.588337432 C4.19989822,0.420337023 4.05989788,0.23833658 3.75189713,0.23833658 C3.44389638,0.23833658 3.30389604,0.420337023 3.23389587,0.588337432 L0.041888102,8.42807652 C0.0138880338,8.49807669 -0.000112000273,8.55407682 -0.000112000273,8.62407699 C-0.000112000273,8.91807771 0.251888613,9.17007832 0.545889329,9.17007832 C0.769889874,9.17007832 0.965890351,9.04407802 1.06389059,8.82007747 L1.97389281,6.62207212 L5.52990146,6.62207212 Z M83.5075713,3.59806476 C83.5075713,3.31806408 83.2835707,3.09434353 82.98929,3.09434353 C82.6952893,3.09434353 82.4715688,3.31806408 82.4715688,3.59806476 L82.4715688,8.68007713 C82.4715688,8.96007781 82.6952893,9.18407836 82.98929,9.18407836 C83.2832907,9.18407836 83.5075713,8.96007781 83.5075713,8.68007713 L83.5075713,3.59806476 Z M83.0035701,2.12834118 C83.4232911,2.12834118 83.6615717,1.8903406 83.6615717,1.48433961 C83.6615717,0.994338421 83.4232911,0.798337943 83.0035701,0.798337943 C82.583569,0.798337943 82.3452885,0.994338421 82.3452885,1.48433961 C82.3452885,1.8903406 82.583569,2.12834118 83.0035701,2.12834118 L83.0035701,2.12834118 Z M85.8172969,3.59806476 C85.8172969,3.31806408 85.5932964,3.09434353 85.2992957,3.09434353 C85.0052949,3.09434353 84.7815744,3.31806408 84.7815744,3.59806476 L84.7815744,8.68007713 C84.7815744,8.96007781 85.0052949,9.18407836 85.2992957,9.18407836 C85.5932964,9.18407836 85.8172969,8.96007781 85.8172969,8.68007713 L85.8172969,5.43206922 C85.8172969,4.60606721 86.265298,3.94806561 87.3853007,3.94806561 C88.4773034,3.94806561 88.7850241,4.57806714 88.7850241,5.46006929 L88.7850241,8.6660771 C88.7850241,8.94607778 89.0093047,9.17007832 89.3033054,9.17007832 C89.5973061,9.17007832 89.8213067,8.94607778 89.8213067,8.6660771 L89.8213067,5.27806885 C89.8213067,4.15806612 89.4850258,2.99606329 87.5533011,2.99606329 C86.685299,2.99606329 86.0832976,3.41606432 85.831577,3.83606534 L85.831577,3.59806476 L85.8172969,3.59806476 Z M92.0750321,3.59806476 C92.0750321,3.31806408 91.8513116,3.09434353 91.5573109,3.09434353 C91.2633102,3.09434353 91.0390296,3.31806408 91.0390296,3.59806476 L91.0390296,8.68007713 C91.0390296,8.96007781 91.2630302,9.18407836 91.5573109,9.18407836 C91.8513116,9.18407836 92.0750321,8.96007781 92.0750321,8.68007713 L92.0750321,5.43206922 C92.0750321,4.60606721 92.5230332,3.94806561 93.643036,3.94806561 C94.7350386,3.94806561 95.0430394,4.57806714 95.0430394,5.46006929 L95.0430394,8.6660771 C95.0430394,8.94607778 95.2670399,9.17007832 95.5610406,9.17007832 C95.8550414,9.17007832 96.0790419,8.94607778 96.0790419,8.6660771 L96.0790419,5.27806885 C96.0790419,4.15806612 95.7430411,2.99606329 93.8113164,2.99606329 C92.9430343,2.99606329 92.3413128,3.41606432 92.0890322,3.83606534 L92.0890322,3.59806476 L92.0750321,3.59806476 Z M102.561058,6.13207093 C102.561058,4.00434575 101.524775,3.01034333 99.7887709,3.01034333 C98.0670467,3.01034333 97.0310442,4.00434575 97.0310442,6.13207093 C97.0310442,8.24607607 98.0670467,9.24007849 99.7887709,9.24007849 C101.511055,9.24007849 102.561058,8.24607607 102.561058,6.13207093 L102.561058,6.13207093 Z M101.496775,6.13207093 C101.496775,7.60207451 100.908774,8.31607624 99.7747709,8.31607624 C98.6547682,8.31607624 98.0670467,7.60207451 98.0670467,6.13207093 C98.0670467,4.66206735 98.6547682,3.93434558 99.7747709,3.93434558 C100.908774,3.94806561 101.496775,4.66206735 101.496775,6.13207093 L101.496775,6.13207093 Z M105.598785,9.18407836 C105.794506,9.18407836 105.976786,9.08607812 106.074506,8.87607761 L108.244512,3.83606534 C108.272512,3.7800652 108.300792,3.71006503 108.300792,3.59806476 C108.300792,3.31806408 108.076791,3.09434353 107.78279,3.09434353 C107.47451,3.09434353 107.348509,3.30434404 107.278509,3.45806442 L105.598785,7.5600744 L103.918781,3.45806442 C103.848781,3.30434404 103.722781,3.09434353 103.41478,3.09434353 C103.121059,3.09434353 102.896778,3.31806408 102.896778,3.59806476 C102.896778,3.696065 102.924779,3.7800652 102.952779,3.83606534 L105.122784,8.87607761 C105.206784,9.07207809 105.388785,9.18407836 105.598785,9.18407836 L105.598785,9.18407836 Z M110.988518,8.34407631 C110.134516,8.34407631 109.714515,7.91007526 109.714515,7.33607386 C109.714515,6.67807226 110.232516,6.37007151 111.044518,6.37007151 L112.696522,6.37007151 L112.696522,6.87407273 C112.682522,7.78407495 111.85652,8.34407631 110.988518,8.34407631 L110.988518,8.34407631 Z M111.282519,3.01006333 C110.204516,3.01006333 109.546515,3.43006435 109.140794,3.90606551 C109.028513,4.03206582 108.986793,4.14434609 108.986793,4.29806646 C108.986793,4.56406711 109.196794,4.73206752 109.434514,4.73206752 C109.588515,4.73206752 109.728515,4.64806732 109.826515,4.55006708 C110.232516,4.15806612 110.596517,3.93434558 111.282519,3.93434558 C112.206521,3.93434558 112.696522,4.49434694 112.696522,5.23606875 L112.696522,5.51606943 L110.918518,5.51606943 C109.616515,5.51606943 108.678513,6.160071 108.678513,7.32207383 C108.678513,8.49807669 109.532515,9.24007849 110.862518,9.24007849 C111.66052,9.24007849 112.346521,8.97407785 112.696522,8.40007645 L112.696522,8.6660771 C112.696522,8.96007781 112.920523,9.17007832 113.214244,9.17007832 C113.494244,9.17007832 113.732525,8.96007781 113.732525,8.6660771 L113.732525,5.20806868 C113.704245,3.85006537 112.850523,3.01006333 111.282519,3.01006333 L111.282519,3.01006333 Z M116.224251,1.91834067 C116.224251,1.63833999 116.00053,1.41433944 115.70653,1.41433944 C115.412529,1.41433944 115.188248,1.63833999 115.188248,1.91834067 L115.188248,3.19234377 L114.754247,3.19234377 C114.488247,3.19234377 114.278246,3.40234428 114.278246,3.6543449 C114.278246,3.90606551 114.488247,4.11606602 114.754247,4.11606602 L115.188248,4.11606602 L115.188248,7.4760742 C115.188248,8.45607659 115.79053,9.17007832 116.882253,9.17007832 C117.162253,9.17007832 117.386254,8.94607778 117.386254,8.68007713 C117.386254,8.41407648 117.162253,8.19007594 116.882253,8.19007594 C116.532252,8.19007594 116.210531,7.95207536 116.210531,7.53207434 L116.210531,4.11606602 L116.994253,4.11606602 C117.260533,4.11606602 117.470534,3.90606551 117.470534,3.6543449 C117.470534,3.38806425 117.260533,3.19234377 116.994253,3.19234377 L116.210531,3.19234377 L116.210531,1.91834067 L116.224251,1.91834067 Z M119.528259,3.59806476 C119.528259,3.31806408 119.304258,3.09434353 119.010538,3.09434353 C118.716257,3.09434353 118.492256,3.31806408 118.492256,3.59806476 L118.492256,8.68007713 C118.492256,8.96007781 118.716257,9.18407836 119.010538,9.18407836 C119.304258,9.18407836 119.528259,8.96007781 119.528259,8.68007713 L119.528259,3.59806476 Z M119.024258,2.12834118 C119.444259,2.12834118 119.682259,1.8903406 119.682259,1.48433961 C119.682259,0.994338421 119.444259,0.798337943 119.024258,0.798337943 C118.604257,0.798337943 118.366256,0.994338421 118.366256,1.48433961 C118.366256,1.8903406 118.604257,2.12834118 119.024258,2.12834118 L119.024258,2.12834118 Z M126.121995,6.13207093 C126.121995,4.00434575 125.086273,3.01034333 123.350268,3.01034333 C121.628264,3.01034333 120.592262,4.00434575 120.592262,6.13207093 C120.592262,8.24607607 121.628264,9.24007849 123.350268,9.24007849 C125.071992,9.24007849 126.121995,8.24607607 126.121995,6.13207093 L126.121995,6.13207093 Z M125.057992,6.13207093 C125.057992,7.60207451 124.470271,8.31607624 123.336268,8.31607624 C122.216266,8.31607624 121.628264,7.60207451 121.628264,6.13207093 C121.628264,4.66206735 122.216266,3.93434558 123.336268,3.93434558 C124.470271,3.94806561 125.057992,4.66206735 125.057992,6.13207093 L125.057992,6.13207093 Z M128.152,3.59806476 C128.152,3.31806408 127.927999,3.09434353 127.633999,3.09434353 C127.340278,3.09434353 127.115997,3.31806408 127.115997,3.59806476 L127.115997,8.68007713 C127.115997,8.96007781 127.340278,9.18407836 127.633999,9.18407836 C127.927999,9.18407836 128.152,8.96007781 128.152,8.68007713 L128.152,5.43206922 C128.152,4.60606721 128.600001,3.94806561 129.720004,3.94806561 C130.812006,3.94806561 131.120007,4.57806714 131.120007,5.46006929 L131.120007,8.6660771 C131.120007,8.94607778 131.343728,9.17007832 131.637728,9.17007832 C131.931729,9.17007832 132.15601,8.94607778 132.15601,8.6660771 L132.15601,5.27806885 C132.15601,4.15806612 131.820009,2.99606329 129.888004,2.99606329 C129.020002,2.99606329 128.418001,3.41606432 128.166,3.83606534 L128.166,3.59806476 L128.152,3.59806476 Z" id="Fill-1" fill="#7D7D7D" mask="url(#mask-2)"></path>
                            </g>
                            <path d="M82.7374854,0.182924445 L72.1117396,3.6546529 C72.1117396,3.6546529 69.6760136,4.46665487 68.3880105,5.60065763 C67.5480084,6.2866593 66.9880071,7.21066155 66.7497265,8.26066411 C67.6737287,7.75666288 68.6260111,7.44866213 68.6260111,7.44866213 L77.3757524,4.59293518 C77.3757524,4.59293518 77.7117532,11.2426714 73.8057437,14.1683985 C74.9394664,13.9443979 76.2557496,13.4543968 77.7534733,12.6006747 C83.1714865,9.52066718 83.0874863,1.20492693 83.0592062,0.182924445 L82.7374854,0.182924445 Z" id="Fill-4" fill="#7D7D7D"></path>
                        </g>
                        <g id="Group-9" transform="translate(66.640162, 6.396896)">
                            <mask id="mask-4" fill="white">
                                <use xlink:href="#path-3"></use>
                            </mask>
                            <g id="Clip-8"></g>
                            <polygon id="Fill-7" fill="#7D7D7D" mask="url(#mask-4)" points="3.03573939 20.4542738 -5.25200079 2.67479051 13.5912051 -6.11695089 21.8792253 11.6625324"></polygon>
                        </g>
                        <path d="M65.6858919,15.3715334 C64.8041698,16.0995352 64.2858885,17.1775378 64.2858885,18.3532607 C64.2858885,20.551546 66.2458933,22.3432704 68.6538991,22.3432704 C69.829902,22.3712705 71.3276256,22.0212696 73.1756301,20.9715471 C73.4139107,20.8452667 73.6376313,20.6915464 73.8476318,20.537266 C73.2316303,20.6632663 72.6716289,20.7052664 72.1539077,20.6915464 C69.1299003,20.6915464 66.6941744,18.4515409 66.6941744,15.7075342 C66.6941744,15.3435334 66.7358945,14.9795325 66.8058946,14.6435316 C66.3998936,14.8395321 65.9941727,15.0915327 65.6858919,15.3715334" id="Fill-10" fill="#7D7D7D"></path>
                        <g id="Group-14" transform="translate(64.120156, 14.516915)">
                            <mask id="mask-6" fill="white">
                                <use xlink:href="#path-5"></use>
                            </mask>
                            <g id="Clip-13"></g>
                            <polygon id="Fill-12" fill="#7D7D7D" mask="url(#mask-6)" points="2.55968223 -4.03116981 13.0874279 2.04456498 7.33369385 11.9983092 -3.19405178 5.92257442"></polygon>
                        </g>
                        <g id="Group-33" transform="translate(0.000000, 0.236881)">
                            <path d="M25.479278,25.9283711 L27.2710024,25.9283711 L27.2710024,24.1643668 C26.3892802,24.0663666 25.479278,24.3183672 25.479278,25.2983696 L25.479278,25.9283711 Z" id="Fill-15" fill="#7D7D7D"></path>
                            <path d="M23.2112445,26.4742884 C21.3072399,26.5162886 20.3552376,27.1322901 20.3552376,29.0502947 L20.3552376,33.7400261 L22.1472419,33.7400261 L22.1472419,29.0502947 C22.1472419,28.1542925 22.4832427,28.0142922 23.1832444,27.9862921 C23.6312455,27.9582921 23.7852459,28.0422923 24.1772469,27.8182917 C24.5412477,27.6222912 24.6952481,27.1742902 24.6812481,26.5302886 C24.1912469,26.5162886 23.7992459,26.4602884 23.2112445,26.4742884" id="Fill-17" fill="#7D7D7D"></path>
                            <path d="M13.6916133,28.0423203 L13.6916133,25.452314 L16.001619,25.452314 C17.0373415,25.452314 17.3033421,25.8163148 17.3033421,26.7263171 C17.3033421,27.6503193 17.0096214,28.0423203 16.001619,28.0423203 L13.6916133,28.0423203 Z M19.4033472,30.9260473 C19.4033472,29.3723235 18.7313456,28.8263222 17.8216234,28.6303217 C18.5773452,28.3083209 19.1373466,27.8463198 19.1373466,26.5023165 C19.1373466,24.5983119 18.2416244,23.9263102 16.3933399,23.9263102 L11.8436088,23.9263102 L11.8436088,33.7540542 L16.5753404,33.7540542 C18.3533447,33.7540542 19.4033472,33.0400524 19.4033472,30.9260473 L19.4033472,30.9260473 Z M13.6916133,29.5263239 L16.2676196,29.5263239 C17.261622,29.5263239 17.5416227,29.9040448 17.5416227,30.8560471 C17.5416227,31.8080494 17.233342,32.2280505 16.2676196,32.2280505 L13.6916133,32.2280505 L13.6916133,29.5263239 Z" id="Fill-19" fill="#7D7D7D"></path>
                            <path d="M34.8588809,25.9283711 L36.6508852,25.9283711 L36.6508852,24.1643668 C35.7688831,24.0663666 34.8588809,24.3183672 34.8588809,25.2983696 L34.8588809,25.9283711 Z" id="Fill-21" fill="#7D7D7D"></path>
                            <mask id="mask-8" fill="white">
                                <use xlink:href="#path-7"></use>
                            </mask>
                            <g id="Clip-24"></g>
                            <polygon id="Fill-23" fill="#7D7D7D" mask="url(#mask-8)" points="34.8449648 33.7540822 36.6509692 33.7540822 36.6509692 26.5723447 34.8449648 26.5723447"></polygon>
                            <path d="M49.2365239,26.4742884 C48.2845215,26.4742884 47.0805186,26.9642896 46.3245168,27.2862904 L46.3245168,23.7025617 C45.4425146,23.6042815 44.5325124,23.842562 44.5325124,24.8362845 L44.5325124,33.7540262 L46.3245168,33.7540262 L46.3245168,28.756294 C47.1365188,28.4482933 48.060521,28.1402925 48.6765225,28.1402925 C49.2085238,28.1402925 49.5165245,28.4622933 49.5165245,28.9522945 L49.5165245,33.7680262 L51.3082489,33.7680262 L51.3082489,28.8962943 C51.3082489,27.3142905 50.7482475,26.4742884 49.2365239,26.4742884" id="Fill-25" fill="#7D7D7D" mask="url(#mask-8)"></path>
                            <polygon id="Fill-26" fill="#7D7D7D" mask="url(#mask-8)" points="25.479222 33.7540822 27.2709464 33.7540822 27.2709464 26.5723447 25.479222 26.5723447"></polygon>
                            <path d="M31.3309843,28.0002082 L32.6049874,28.0002082 C33.5429897,28.0002082 33.9069905,27.5802071 33.8089903,26.5722047 L31.3169842,26.5722047 L31.3169842,24.1784789 C30.4349821,24.0801986 29.5249799,24.3321992 29.5249799,25.3122016 L29.5249799,26.5722047 L28.1952566,26.5722047 L28.1952566,28.0002082 L29.5392599,28.0002082 L29.5392599,31.2482161 C29.5392599,33.0402204 30.2809817,33.8239423 32.1429862,33.8239423 C32.7169876,33.8239423 33.2069888,33.7819422 33.6549899,33.7262221 L33.6129898,32.2982186 C33.276989,32.3262187 32.7729878,32.3542188 32.3669868,32.3542188 C31.6809851,32.3542188 31.3449843,32.1162182 31.3449843,31.3602163 L31.3449843,28.0002082 L31.3309843,28.0002082 Z" id="Fill-27" fill="#7D7D7D" mask="url(#mask-8)"></path>
                            <path d="M39.422836,28.5602095 C39.422836,28.1122084 39.7728368,27.944208 40.2208379,27.944208 C40.9768398,27.944208 41.6628414,27.9722081 42.0965625,27.9862081 C42.9085645,28.0142082 43.3005654,27.5802071 43.2585653,26.6284848 C42.712844,26.5722047 41.4665609,26.4742044 40.4308384,26.4742044 C38.8208345,26.4742044 37.6448316,27.0762059 37.6448316,28.5602095 C37.6448316,30.1002133 38.5128338,30.5202143 40.1088376,30.7862149 C41.5508412,31.0242155 41.8445619,31.1222158 41.8445619,31.626217 C41.8445619,32.2282185 41.1728402,32.3122187 40.5145586,32.3122187 C39.5628363,32.3122187 38.5408338,32.2562185 37.9108323,32.2002184 L37.8268321,33.698222 C38.4988337,33.7539422 39.5068362,33.8239423 40.5988388,33.8239423 C42.4465633,33.8239423 43.6085662,33.2502209 43.6085662,31.7102172 C43.6085662,30.2262136 42.8245643,29.7782125 41.2708405,29.4842118 C39.828837,29.2322112 39.422836,29.1342109 39.422836,28.5602095" id="Fill-28" fill="#7D7D7D" mask="url(#mask-8)"></path>
                            <path d="M63.3620823,28.0702083 L59.6520732,28.0702083 C59.568073,29.148211 59.9180739,29.596212 60.8560761,29.596212 L61.5000777,29.596212 L61.5000777,32.060218 C60.9820765,32.1302182 59.8200736,32.2282185 59.3020724,32.2282185 C57.8320688,32.2282185 57.2583474,31.6542171 57.2583474,28.75621 C57.2583474,25.9422032 57.6783484,25.2844816 60.0160741,25.466482 L61.598078,25.5784823 C62.6620805,25.6342024 63.0540815,25.060201 63.0400815,24.1644788 C62.3260797,24.0524786 60.4080751,23.842478 59.6100731,23.842478 C56.2220649,23.842478 55.3263427,24.8084804 55.3263427,28.7982101 C55.3263427,32.6762195 56.4183453,33.8382224 59.2460722,33.8382224 C60.3100748,33.8382224 62.3120797,33.6139418 63.3480822,33.3902213 L63.3480822,28.0702083 L63.3620823,28.0702083 Z" id="Fill-29" fill="#7D7D7D" mask="url(#mask-8)"></path>
                            <path d="M73.6098552,28.5602095 C73.6098552,28.1122084 73.959576,27.944208 74.4078571,27.944208 C75.163859,27.944208 75.8495806,27.9722081 76.2978617,27.9862081 C77.1095837,28.0142082 77.5015847,27.5802071 77.4595846,26.6284848 C76.9135832,26.5722047 75.6678602,26.4742044 74.6315777,26.4742044 C73.0355738,26.4742044 71.8458509,27.0762059 71.8458509,28.5602095 C71.8458509,30.1002133 72.713853,30.5202143 74.3095769,30.7862149 C75.7515804,31.0242155 76.0455811,31.1222158 76.0455811,31.626217 C76.0455811,32.2282185 75.3735795,32.3122187 74.7295779,32.3122187 C73.7778556,32.3122187 72.7555731,32.2562185 72.1255716,32.2002184 L72.0415714,33.698222 C72.713853,33.7539422 73.7215755,33.8239423 74.8138581,33.8239423 C76.6615826,33.8239423 77.8375855,33.2502209 77.8375855,31.7102172 C77.8375855,30.2262136 77.0535836,29.7782125 75.4995798,29.4842118 C74.0295762,29.2322112 73.6098552,29.1342109 73.6098552,28.5602095" id="Fill-30" fill="#7D7D7D" mask="url(#mask-8)"></path>
                            <path d="M70.8516805,28.7982381 C70.8516805,27.3142345 70.249959,26.5162326 68.4159546,26.5162326 C67.2679518,26.5162326 65.7699481,26.6422329 65.0979465,26.7262331 C65.0839464,27.6222352 65.3359471,28.0842364 66.1059489,28.0842364 C66.6379502,28.0842364 67.6599527,28.0282362 68.2619542,28.0282362 C68.7936755,28.0282362 69.0599561,28.2242367 69.0599561,28.8402382 L69.0599561,29.1062389 C68.2479541,29.148239 67.5199524,29.2462392 66.8479507,29.3442394 C65.2659469,29.58224 64.3419446,30.0302411 64.3419446,31.612245 C64.3419446,33.0262484 65.0419463,33.8799705 66.55395,33.8799705 C68.1499539,33.8799705 69.8999582,33.7682502 70.8659605,33.6419699 L70.8659605,28.7982381 L70.8516805,28.7982381 Z M69.0599561,32.4242469 C68.597955,32.4799671 67.6736727,32.5082471 66.9179509,32.5082471 C66.1899491,32.5082471 66.0779489,32.032246 66.0779489,31.612245 C66.0779489,30.9542434 66.3859496,30.7722429 67.1279514,30.6462426 C67.7436729,30.5342423 68.3599544,30.4502421 69.0599561,30.408242 L69.0599561,32.4242469 Z" id="Fill-31" fill="#7D7D7D" mask="url(#mask-8)"></path>
                            <path d="M133.751762,33.7961383 C134.171763,33.7961383 134.410043,33.5581377 134.410043,33.1521367 C134.410043,32.6621355 134.171763,32.466135 133.751762,32.466135 C133.331761,32.466135 133.09376,32.6621355 133.09376,33.1521367 C133.09376,33.5721377 133.331761,33.7961383 133.751762,33.7961383" id="Fill-32" fill="#7D7D7D" mask="url(#mask-8)"></path>
                        </g>
                    </g>
                </g>
            </g>
        </g>
    </g>
</svg>