<?xml version="1.0" encoding="UTF-8" standalone="no"?>
<svg width="18px" height="25px" viewBox="0 0 18 25" version="1.1" xmlns="http://www.w3.org/2000/svg" xmlns:xlink="http://www.w3.org/1999/xlink">
    <!-- Generator: Sketch 45.1 (43504) - http://www.bohemiancoding.com/sketch -->
    <title>Page 1</title>
    <desc>Created with Sketch.</desc>
    <defs></defs>
    <g id="Symbols" stroke="none" stroke-width="1" fill="none" fill-rule="evenodd">
        <g id="Navigate-Card/Home" transform="translate(-27.000000, -280.000000)" fill="#CCCCCC">
            <path d="M41.625,300.5 L30.375,300.5 L30.375,298.25 L28.125,298.25 L28.125,302.75 C28.125,303.9875 29.1375,305 30.375,305 L41.625,305 C42.8625,305 43.875,303.9875 43.875,302.75 L43.875,298.25 L41.625,298.25 L41.625,300.5 Z M33.75,296.19125 L30.18375,292.625 L33.75,289.05875 L32.16375,287.46125 L27,292.625 L32.16375,297.78875 L33.75,296.19125 Z M39.83625,297.78875 L45,292.625 L39.83625,287.46125 L38.25,289.05875 L41.81625,292.625 L38.25,296.19125 L39.83625,297.78875 Z M30.375,284.75 L41.625,284.75 L41.625,287 L43.875,287 L43.875,282.5 C43.875,281.2625 42.8625,280.26125 41.625,280.26125 L30.375,280.25 C29.1375,280.25 28.125,281.2625 28.125,282.5 L28.125,287 L30.375,287 L30.375,284.75 Z" id="Page-1"></path>
        </g>
    </g>
</svg>