<svg width="24" height="24" viewBox="0 0 24 24" version="1.1" xmlns="http://www.w3.org/2000/svg" xmlns:xlink="http://www.w3.org/1999/xlink"><title/><desc/><g id="PLANS" stroke="none" stroke-width="1" fill="none" fill-rule="evenodd"><g id="Desktop---Welcome-home---Customise-page-with-Amazon-offer-2" transform="translate(-1076.000000, -600.000000)" fill-rule="nonzero" fill="#29424C"><g id="Group-4" transform="translate(1076.000000, 600.000000)"><g id="ic_general_info_16px"><path d="M12,24 C5.372583,24 7.61295788e-16,18.627417 0,12 C-7.61295788e-16,5.372583 5.372583,1.52259158e-15 12,0 C18.627417,-1.33226763e-15 24,5.372583 24,12 C24,15.1825979 22.7357179,18.2348448 20.4852814,20.4852814 C18.2348448,22.7357179 15.1825979,24 12,24 Z M12,0.857142857 C5.84596993,0.857142857 0.857142857,5.84596993 0.857142857,12 C0.857142857,18.1540301 5.84596993,23.1428571 12,23.1428571 C18.1540301,23.1428571 23.1428571,18.1540301 23.1428571,12 C23.1334172,5.84988433 18.1501157,0.866582806 12,0.857142857 Z" id="Shape"/><rect id="Rectangle-path" x="10.886" y="5.383" width="2.246" height="2.246" rx="1.12"/><path d="M12,19.0628571 C11.7633065,19.0628571 11.5714286,18.8709792 11.5714286,18.6342857 L11.5714286,9.66857143 C11.5714286,9.43187796 11.7633065,9.24 12,9.24 C12.2366935,9.24 12.4285714,9.43187796 12.4285714,9.66857143 L12.4285714,18.6342857 C12.4285714,18.8709792 12.2366935,19.0628571 12,19.0628571 L12,19.0628571 Z" id="Shape"/></g></g></g></g></svg>