<?xml version="1.0" encoding="UTF-8" standalone="no"?>
<svg width="13px" height="17px" viewBox="0 0 13 17" version="1.1" xmlns="http://www.w3.org/2000/svg" xmlns:xlink="http://www.w3.org/1999/xlink">
    <!-- Generator: Sketch 45.2 (43514) - http://www.bohemiancoding.com/sketch -->
    <title>lock icon</title>
    <desc>Created with Sketch.</desc>
    <defs></defs>
    <g id="PAGES" stroke="none" stroke-width="1" fill="none" fill-rule="evenodd">
        <g id="Login" transform="translate(-437.000000, -373.000000)" fill="#E6E6E6">
            <g id="Sing-In-Card" transform="translate(390.000000, 195.000000)">
                <g id="content" transform="translate(30.000000, 91.000000)">
                    <g id="passward-default-input" transform="translate(0.000000, 70.000000)">
                        <g id="lock-icon" transform="translate(17.000000, 17.000000)">
                            <path d="M11.375,5.66666667 L10.5625,5.66666667 L10.5625,4.04761905 C10.5625,1.81333333 8.7425,0 6.5,0 C4.2575,0 2.4375,1.81333333 2.4375,4.04761905 L2.4375,5.66666667 L1.625,5.66666667 C0.73125,5.66666667 -1.77635684e-15,6.3952381 -1.77635684e-15,7.28571429 L-1.77635684e-15,15.3809524 C-1.77635684e-15,16.2714286 0.73125,17 1.625,17 L11.375,17 C12.26875,17 13,16.2714286 13,15.3809524 L13,7.28571429 C13,6.3952381 12.26875,5.66666667 11.375,5.66666667 L11.375,5.66666667 Z M6.5,13 C5.675,13 5,12.325 5,11.5 C5,10.675 5.675,10 6.5,10 C7.325,10 8,10.675 8,11.5 C8,12.325 7.325,13 6.5,13 L6.5,13 Z M9,6 L4,6 L4,4.43137255 C4,3.09019608 5.12096774,2 6.5,2 C7.87903226,2 9,3.09019608 9,4.43137255 L9,6 L9,6 Z"></path>
                        </g>
                    </g>
                </g>
            </g>
        </g>
    </g>
</svg>