<?xml version="1.0" encoding="UTF-8" standalone="no"?>
<svg width="18px" height="4px" viewBox="0 0 18 4" version="1.1" xmlns="http://www.w3.org/2000/svg" xmlns:xlink="http://www.w3.org/1999/xlink">
    <!-- Generator: Sketch 46.1 (44463) - http://www.bohemiancoding.com/sketch -->
    <title>menu icon copy</title>
    <desc>Created with Sketch.</desc>
    <defs></defs>
    <g id="PAGES" stroke="none" stroke-width="1" fill="none" fill-rule="evenodd">
        <g id="CAMPAIGN" transform="translate(-397.000000, -474.000000)" fill="#CCD2D6">
            <path d="M399,478 C397.895431,478 397,477.104569 397,476 C397,474.895431 397.895431,474 399,474 C400.104569,474 401,474.895431 401,476 C401,477.104569 400.104569,478 399,478 Z M406,478 C404.895431,478 404,477.104569 404,476 C404,474.895431 404.895431,474 406,474 C407.104569,474 408,474.895431 408,476 C408,477.104569 407.104569,478 406,478 Z M413,478 C411.895431,478 411,477.104569 411,476 C411,474.895431 411.895431,474 413,474 C414.104569,474 415,474.895431 415,476 C415,477.104569 414.104569,478 413,478 Z" id="menu-icon-copy"></path>
        </g>
    </g>
</svg>