<?xml version="1.0" encoding="UTF-8" standalone="no"?>
<svg width="4px" height="15px" viewBox="0 0 4 15" version="1.1" xmlns="http://www.w3.org/2000/svg" xmlns:xlink="http://www.w3.org/1999/xlink">
    <!-- Generator: Sketch 44 (41411) - http://www.bohemiancoding.com/sketch -->
    <title>Fill 198</title>
    <desc>Created with Sketch.</desc>
    <defs></defs>
    <g id="Symbols" stroke="none" stroke-width="1" fill="none" fill-rule="evenodd">
        <g id="Mobile-nav" transform="translate(-280.000000, -27.000000)" fill="#5C6D7C">
            <g id="Cta">
                <g transform="translate(92.000000, 12.000000)">
                    <g id="More" transform="translate(168.000000, 0.000000)">
                        <path d="M21.875,18.75 C22.90625,18.75 23.75,17.90625 23.75,16.875 C23.75,15.84375 22.90625,15 21.875,15 C20.84375,15 20,15.84375 20,16.875 C20,17.90625 20.84375,18.75 21.875,18.75 L21.875,18.75 Z M21.875,20.625 C20.84375,20.625 20,21.46875 20,22.5 C20,23.53125 20.84375,24.375 21.875,24.375 C22.90625,24.375 23.75,23.53125 23.75,22.5 C23.75,21.46875 22.90625,20.625 21.875,20.625 L21.875,20.625 Z M21.875,26.25 C20.84375,26.25 20,27.09375 20,28.125 C20,29.15625 20.84375,30 21.875,30 C22.90625,30 23.75,29.15625 23.75,28.125 C23.75,27.09375 22.90625,26.25 21.875,26.25 L21.875,26.25 Z" id="Fill-198"></path>
                    </g>
                </g>
            </g>
        </g>
    </g>
</svg>